# xmcd
#
# Track frame offsets:
#	150
#	10096
#	20403
#	31198
#	42447
#	54023
#	63650
#	74033
#	84270
#	95938
#	107466
#	119192
#	132939
#	145165
#	157366
#	170138
#
# Disc length: 2419 seconds
#
# Revision: 3
# Processed by: cddbd v1.5.2PL0 Copyright (c) Steve Scherf et al.
# Submitted via: EasyCDDAExtractor 2010.6.0.0
#
DISCID=e7097110
DTITLE=Drifters - The Very Best of the Drifters
DYEAR=1900
DGENRE=Oldies
TTITLE0=There Goes My Baby
TTITLE1=(If You Cry) True Love, True Love
TTITLE2=Dance With Me
TTITLE3=This Magic Moment
TTITLE4=Save The Last Dance For Me
TTITLE5=I Count The Tears
TTITLE6=Some Kind Of Wonderful
TTITLE7=Please Stay
TTITLE8=Sweets For My Sweet
TTITLE9=When My Little Girl Is Smiling
TTITLE10=Up On The Roof
TTITLE11=On Broadway
TTITLE12=I'll Take You Home
TTITLE13=Under The Boardwalk
TTITLE14=I've Got Sand In My Shoes
TTITLE15=Saturday Night At The Movies
EXTD=
EXTT0=
EXTT1=
EXTT2=
EXTT3=
EXTT4=
EXTT5=
EXTT6=
EXTT7=
EXTT8=
EXTT9=
EXTT10=
EXTT11=
EXTT12=
EXTT13=
EXTT14=
EXTT15=
PLAYORDER=
